<svg width="1440" height="400" viewBox="0 0 1440 400" fill="none" xmlns="http://www.w3.org/2000/svg">
<g clip-path="url(#clip0_5384_788)" filter="url(#filter0_b_5384_788)">
<rect width="1440" height="400" fill="#99A6BF"/>
<path d="M1234.97 46.5698C1236.71 49.0966 1238.44 51.6235 1239.83 53.5186C1257.53 75.9442 1278 96.1588 1301.59 117.953C1304.71 120.795 1307.83 123.954 1311.3 126.797C1330.73 144.484 1350.51 162.804 1362.65 184.598C1367.16 193.126 1368.55 199.443 1366.81 203.549C1365.77 205.444 1364.38 206.708 1362.3 207.023C1361.26 207.339 1360.57 207.339 1359.53 207.339C1355.36 207.339 1349.46 205.444 1343.22 201.97C1330.38 195.021 1318.24 186.177 1306.44 177.649C1296.73 170.7 1286.67 163.436 1276.61 157.434C1234.97 132.482 1207.57 115.742 1194.73 68.9954C1191.95 59.2039 1190.57 37.0942 1198.89 27.6185C1201.67 24.46 1205.49 22.8807 1210 22.8807C1219.71 23.5124 1228.38 36.7783 1234.97 46.5698ZM1208.26 24.1442C1204.44 24.1442 1201.32 25.7234 1198.89 28.5661C1190.91 38.0417 1192.3 59.5198 1195.08 68.9954C1207.91 115.426 1234.97 131.85 1276.61 156.803C1287.02 163.12 1297.08 170.069 1306.44 177.017C1318.24 185.545 1330.38 194.073 1343.22 201.338C1350.85 205.76 1357.79 207.339 1361.61 206.392C1363.34 205.76 1364.73 204.812 1365.42 203.233C1367.16 199.443 1365.77 193.126 1361.26 184.914C1349.46 163.436 1329.34 145.116 1310.26 127.428C1307.14 124.27 1303.67 121.427 1300.55 118.584C1277.3 96.7905 1256.49 76.5759 1238.79 54.1503C1237.4 52.2552 1235.67 49.7283 1233.93 47.2015C1227.69 37.7259 1219.02 24.7759 1208.95 24.46C1208.61 24.1442 1208.61 24.1442 1208.26 24.1442Z" fill="#62708C"/>
<path d="M1213.6 -5.45807C1228.89 -1.98405 1242.1 17.281 1252.88 32.4404C1256.7 37.8093 1260.17 42.8624 1263.3 46.6523C1280.68 66.8648 1300.15 85.1824 1318.92 102.868C1323.78 107.606 1330.04 112.659 1336.64 118.028C1356.11 134.45 1380.09 154.663 1387.39 173.296C1393.65 189.087 1389.83 203.931 1386.35 218.143C1383.57 229.828 1380.44 242.145 1382.87 255.094C1384.26 262.989 1389.48 270.885 1395.04 279.096C1401.64 288.887 1408.6 298.993 1408.94 310.047C1408.94 313.836 1408.6 317.31 1407.21 321.1C1402.69 332.786 1397.82 338.155 1392.26 338.155C1386.7 338.155 1380.44 332.786 1371.4 319.837C1362.71 307.52 1359.24 292.992 1356.11 279.096C1352.63 265.2 1349.51 250.672 1340.47 238.039C1323.78 214.037 1294.24 196.667 1268.52 180.876C1266.43 179.613 1264 178.349 1261.91 177.086C1218.81 151.189 1184.75 130.661 1169.8 75.392C1165.63 60.8642 1166.67 23.5974 1183.36 4.64817C1191 -4.82644 1201.43 -7.98464 1213.6 -5.45807ZM1184.4 5.59564C1169.8 22.6499 1166.67 58.6535 1171.19 75.0761C1186.14 129.713 1219.85 149.926 1262.61 175.823C1264.69 177.086 1266.78 178.349 1269.21 179.613C1295.28 195.088 1324.83 212.774 1341.86 237.092C1350.9 249.725 1354.37 264.568 1357.5 278.78C1360.63 292.676 1364.1 306.888 1372.79 319.205C1378.7 328.048 1386 336.891 1392.26 336.891C1397.13 336.891 1401.3 331.522 1405.81 320.784C1407.21 317.31 1407.9 314.152 1407.55 310.362C1407.21 299.94 1400.25 289.834 1394 280.044C1388.44 271.832 1382.87 263.937 1381.48 255.725C1379.05 242.777 1382.18 230.46 1384.96 218.459C1388.44 203.615 1391.91 189.719 1386 174.244C1378.7 155.926 1354.72 135.714 1335.6 119.607C1329 114.238 1322.74 108.869 1317.87 104.132C1299.1 86.4457 1279.64 68.1281 1262.26 47.9156C1259.13 44.1258 1255.66 39.0726 1251.83 33.7037C1241.4 18.5443 1228.2 -0.404928 1213.6 -3.56313C1210.82 -4.19477 1208.38 -4.5106 1205.95 -4.5106C1197.26 -4.82642 1190.31 -1.35241 1184.4 5.59564Z" fill="#62708C"/>
<path d="M1197.44 -74.6146C1205.76 -85.3572 1213.04 -86.937 1220.32 -88.2009C1225.52 -89.1488 1231.06 -90.4126 1237.3 -94.5201L1237.65 -95.152C1255.33 -113.162 1314.6 -171.93 1334.7 -171.93C1337.13 -171.93 1338.86 -171.299 1340.25 -169.719C1343.02 -166.559 1342.68 -160.24 1339.9 -150.129C1338.17 -144.126 1321.19 -135.911 1303.51 -127.38C1288.6 -120.113 1273.35 -112.53 1268.15 -107.159C1263.64 -102.103 1257.41 -95.152 1257.75 -92.6243C1257.75 -91.9924 1258.79 -91.6764 1260.18 -91.0445C1263.3 -89.7807 1267.8 -87.5689 1265.38 -77.4582C1263.64 -70.5071 1259.14 -63.8719 1254.29 -57.2367C1250.13 -50.9175 1245.97 -45.2302 1244.58 -39.5429C1240.07 -24.0609 1268.15 4.37555 1286.52 23.3332C1292.76 29.6524 1297.96 35.0237 1301.08 39.1312C1314.6 55.5612 1331.24 70.4113 1347.53 84.9455C1379.07 113.382 1411.66 142.766 1423.09 183.209C1441.12 243.874 1444.59 297.271 1434.19 342.137C1428.64 366.15 1409.58 399.326 1390.86 399.326C1379.42 399.326 1370.75 386.688 1365.9 361.727C1346.49 265.675 1293.45 233.763 1242.5 202.799C1197.09 175.31 1154.11 149.401 1135.74 82.4178C1128.81 57.1409 1139.55 17.9619 1153.42 -3.52346C1159.66 -13.0023 1167.28 -18.6895 1174.91 -23.7449C1181.49 -28.4843 1187.73 -32.5918 1192.59 -39.5429C1196.05 -44.5983 1195.36 -50.2856 1194.66 -56.2889C1193.97 -62.6081 1193.28 -68.9273 1197.44 -74.6146ZM1194.66 -38.5951C1189.47 -31.328 1183.23 -26.9045 1176.29 -22.1651C1169.01 -17.1097 1161.39 -11.7384 1155.5 -2.57557C1141.98 18.5938 1131.23 56.825 1138.16 81.7859C1156.54 148.138 1198.82 173.73 1243.89 200.903C1295.53 232.183 1348.92 264.411 1368.33 361.411C1373.18 384.792 1380.81 397.114 1390.86 397.114C1406.46 397.114 1425.87 367.098 1431.76 341.505C1442.16 296.955 1438.69 243.874 1421.71 183.841C1410.27 144.03 1378.03 114.962 1346.84 86.5253C1330.54 71.9911 1313.56 56.825 1300.04 40.395C1296.92 36.2875 1291.37 30.9162 1285.48 24.913C1265.38 4.37555 1238.34 -23.429 1242.85 -40.1749C1244.58 -46.1781 1248.74 -52.1814 1252.9 -58.5006C1257.41 -64.8198 1261.91 -71.771 1263.64 -78.0902C1265.72 -86.3051 1262.6 -87.8849 1259.48 -89.1488C1257.75 -89.7807 1256.37 -90.7286 1256.02 -92.3084C1255.33 -94.5201 1257.06 -98.3116 1266.76 -108.738C1272.31 -114.742 1287.91 -122.325 1302.81 -129.592C1318.41 -137.175 1336.44 -146.022 1337.82 -151.077C1341.29 -162.452 1340.25 -166.875 1338.52 -168.771C1337.82 -169.719 1336.44 -170.035 1335.05 -170.035C1319.8 -170.035 1275.78 -130.856 1239.73 -93.8882C1239.38 -93.5722 1239.03 -93.2562 1239.03 -93.2562C1232.1 -88.5168 1226.21 -87.5689 1221.01 -86.3051C1213.73 -84.7253 1207.14 -83.4615 1199.52 -73.3508C1195.7 -68.6113 1196.4 -62.6081 1197.09 -56.6048C1197.78 -50.2856 1198.48 -43.9664 1194.66 -38.5951Z" fill="#62708C"/>
<path d="M1225.8 76.5243C1230.98 76.5243 1235.82 82.2088 1239.62 86.3144C1240.31 87.2618 1241 87.8935 1241.69 88.5251C1245.14 91.999 1248.25 95.7887 1251.71 99.5784C1253.78 101.789 1255.85 104.316 1257.92 106.526L1258.27 106.842C1265.18 114.421 1267.94 119.159 1266.91 121.685C1266.56 122.317 1265.87 123.264 1264.14 123.58C1263.8 123.58 1263.45 123.58 1263.45 123.58C1249.63 123.264 1238.58 111.895 1233.05 104.947C1227.87 98.3151 1224.07 91.3673 1223.03 85.6828C1222.69 84.4195 1222 79.6824 1223.73 77.4717C1223.73 76.8401 1224.76 76.5243 1225.8 76.5243ZM1223.73 85.6828C1225.11 91.0515 1228.56 97.9994 1233.74 104.316C1238.92 110.948 1249.63 122.001 1262.76 122.317V123.264V122.633C1263.11 122.633 1263.11 122.633 1263.45 122.633C1264.83 122.633 1264.83 122.001 1264.83 122.001C1265.18 121.054 1265.18 118.211 1256.54 108.737L1256.2 108.421C1254.12 106.21 1252.05 103.684 1249.98 101.473C1246.87 97.9994 1243.42 94.2096 1239.96 90.4199C1239.27 89.7883 1238.58 88.8409 1237.89 87.8934C1234.78 84.1037 1229.94 78.735 1225.45 78.735C1224.76 78.735 1224.07 79.0508 1223.73 79.3666C1223.03 79.9982 1223.38 83.1563 1223.73 85.6828Z" fill="#62708C"/>
<path d="M859.55 396.498C813.345 391.765 764.013 343.172 763.318 302.152C762.275 239.044 802.228 188.874 840.79 140.281C847.391 132.077 853.992 123.557 860.593 115.038L864.414 109.989C882.479 86.3235 902.977 59.1872 909.925 30.1576C915.483 5.5456 924.169 -51.8825 914.789 -71.7614C907.84 -86.2762 888.385 -94.4802 869.278 -102.684C856.076 -108.364 843.569 -113.412 834.884 -120.67L834.537 -120.985C804.66 -145.597 804.66 -145.597 784.51 -146.228C778.256 -146.544 770.613 -146.544 759.844 -147.491C745.252 -148.753 736.915 -150.646 730.661 -151.908C726.84 -152.855 723.713 -153.486 721.281 -153.486C715.028 -153.486 709.817 -149.384 692.446 -136.131C641.029 -96.6889 642.072 -28.217 643.114 38.0461C644.156 121.348 645.546 207.806 541.67 234.942C526.731 238.729 512.14 240.937 498.244 240.937C459.334 240.937 425.982 225.161 402.011 195.184C366.923 151.324 357.543 82.5371 378.735 24.1624C427.719 -110.257 544.449 -186.933 670.212 -260.138C784.51 -326.717 893.249 -345.018 986.008 -357.008C992.608 -357.955 999.209 -358.271 1005.12 -358.271C1042.98 -358.271 1060.7 -340.916 1083.28 -318.828C1091.97 -310.309 1101 -301.789 1112.12 -292.638C1124.97 -282.541 1141.3 -275.599 1156.93 -268.658C1182.64 -257.614 1206.61 -247.201 1216.69 -224.167C1237.88 -175.258 1185.77 -136.762 1139.91 -103C1118.72 -87.5383 1098.57 -72.708 1086.76 -57.8777C1039.86 0.497 1054.1 99.2606 1096.48 154.48C1109.69 171.834 1135.05 193.291 1161.8 215.694C1206.27 253.243 1256.64 295.526 1265.67 331.497C1269.84 348.221 1268.8 359.896 1262.2 367.468C1256.99 373.464 1247.61 376.619 1234.41 376.619C1212.52 376.619 1181.25 368.415 1148.25 359.896C1107.6 349.167 1061.74 337.177 1022.83 337.177C1004.07 337.177 988.787 339.701 975.585 345.381C960.647 351.692 947.793 360.527 935.286 369.362C914.789 383.877 895.681 397.445 868.583 397.445C865.456 396.814 862.677 396.814 859.55 396.498ZM974.891 343.488C988.092 338.123 1004.07 335.284 1022.83 335.284C1062.09 335.284 1108.3 347.274 1148.94 358.002C1181.95 366.522 1213.21 374.726 1234.75 374.726C1247.61 374.726 1255.95 371.886 1261.16 366.206C1267.41 359.264 1268.1 347.905 1264.28 331.813C1255.6 296.472 1205.22 254.19 1161.1 216.957C1134.35 194.238 1108.64 172.781 1095.44 155.427C1052.71 99.5762 1038.81 0.181454 1085.71 -58.8243C1097.53 -73.6546 1117.68 -88.4849 1139.22 -104.262C1184.73 -137.709 1236.49 -175.574 1215.65 -223.535C1205.92 -245.939 1181.95 -256.352 1156.59 -267.08C1140.61 -274.022 1124.28 -280.964 1111.42 -291.376C1100.31 -300.211 1091.27 -309.046 1082.59 -317.566C1060.35 -339.338 1042.64 -356.377 1005.46 -356.377C999.557 -356.377 993.303 -356.062 986.702 -355.115C893.944 -343.125 785.205 -324.823 671.601 -258.56C546.186 -185.671 429.804 -108.995 381.166 25.109C360.322 82.8526 369.354 151.009 404.095 194.553C427.719 224.214 460.376 239.675 498.939 239.675C512.488 239.675 527.079 237.782 541.67 233.68C587.876 221.69 616.711 196.762 630.607 157.635C643.114 122.61 642.419 79.6972 641.724 38.0461C640.682 -28.5326 639.987 -97.6356 691.751 -137.393C716.417 -156.326 717.112 -156.641 731.356 -153.486C737.609 -152.224 745.947 -150.331 760.538 -149.068C771.308 -148.122 778.951 -147.806 784.857 -147.806C805.702 -147.175 805.702 -147.175 836.274 -122.248L836.621 -121.932C845.307 -114.99 857.466 -109.626 870.32 -104.262C889.775 -96.0579 909.577 -87.5383 916.873 -72.708C926.601 -52.5135 917.915 5.23006 912.009 30.1576C905.409 59.5027 884.564 86.639 866.499 110.304L862.677 115.353C856.424 123.873 849.475 132.392 842.875 140.596C804.312 189.189 764.707 239.044 765.75 301.521C766.444 341.91 815.082 389.556 860.245 394.289C863.024 394.605 866.151 394.605 868.93 394.605C895.681 394.605 914.441 381.037 934.591 366.837C946.75 358.949 959.605 349.798 974.891 343.488Z" fill="#62708C"/>
<path d="M47.9897 -89.774C49.7185 -91.0392 52.4845 -93.2533 55.942 -95.7836C69.0808 -106.221 91.2093 -123.934 106.768 -123.934C112.992 -123.934 117.487 -121.087 120.253 -116.026C123.71 -109.384 116.104 -93.8858 110.572 -83.7645C109.189 -81.2342 108.151 -79.0201 107.46 -77.4387C106.077 -74.2757 104.694 -71.4291 103.657 -68.5825C96.3956 -50.8701 88.7889 -32.8414 83.2568 -13.2313C82.5653 -11.0173 82.2195 -8.80325 81.528 -6.27291C79.1077 4.16473 75.6502 17.449 67.6978 23.7748C64.5859 26.3052 61.4742 27.8867 58.7082 28.8355C57.3251 29.1518 55.9421 29.4681 54.9048 29.4681C45.5694 29.4681 39 19.663 32.7764 10.1743C31.3934 7.96023 30.0103 5.74619 28.2815 3.84843L26.8985 1.95071C3.04129 -31.26 -11.4805 -51.1864 32.4306 -79.0201C36.5797 -82.183 42.1118 -85.9785 47.9897 -89.774ZM28.2815 0.68551L29.6645 2.58328C31.0475 4.79733 32.7764 7.01137 34.1594 8.90913C40.0373 18.0816 46.2609 27.2541 54.9048 27.2541C55.9421 27.2541 56.9794 26.9378 58.3624 26.9378C61.1284 26.3052 63.8945 24.7237 66.6605 22.1934C74.2672 16.1838 77.3789 3.21587 79.7992 -6.90548C80.4908 -9.43582 80.8365 -11.6499 81.528 -13.8639C87.0601 -33.7903 94.6668 -51.819 102.273 -69.5313C103.311 -72.0617 104.694 -75.2246 106.077 -78.3875C106.768 -79.969 107.806 -82.183 109.189 -84.7134C114.029 -93.8859 121.982 -109.7 118.87 -115.71C116.104 -120.454 112.3 -122.985 106.768 -122.985C91.9008 -122.985 70.1181 -105.589 57.3251 -95.4673C53.8675 -92.6207 51.1015 -90.4066 49.3727 -89.4578C43.4948 -85.6623 37.9627 -81.8668 33.8136 -79.3364C-9.06019 -51.5027 5.11581 -31.8926 28.2815 0.68551Z" fill="#62708C"/>
<path d="M19.0824 -125.305C26.7152 -130.371 34.348 -136.069 42.3277 -142.084C66.9607 -160.446 95.0631 -181.341 120.39 -181.341C125.247 -181.341 130.104 -180.391 134.962 -178.808C179.37 -163.612 173.125 -120.556 165.146 -96.1793C160.289 -81.2998 154.391 -66.7369 148.492 -52.4905C141.554 -36.028 134.268 -18.9323 129.411 -1.52009C126.288 8.92726 124.9 20.0078 123.513 30.7717C119.002 63.3801 114.839 94.4055 66.9607 94.4055C63.1444 94.4055 58.981 94.089 54.8177 93.7724C49.2666 93.1392 44.7563 92.506 40.94 91.2397C28.103 87.4406 24.2866 80.4757 18.7355 69.7118C17.0008 66.5459 14.9191 62.7469 12.4905 58.9479C8.67415 52.9328 4.51083 47.2342 0.347504 41.5357V39.9527C4.85777 45.9679 9.368 51.983 13.5313 58.3147C15.9599 62.1137 18.0417 65.9128 19.7764 69.0786C25.3275 79.526 29.1438 86.4909 41.6338 89.9733C45.4502 90.9231 49.6135 91.8729 55.1646 92.1894C59.3279 92.506 63.4912 92.8226 67.3076 92.8226C114.145 92.8226 118.308 63.6967 122.819 29.8219C124.206 19.058 125.941 7.97749 128.717 -2.46986C133.574 -19.8821 140.86 -36.9777 147.799 -53.4402C153.697 -67.6866 159.942 -82.2496 164.452 -96.8126C172.085 -120.873 178.33 -162.979 134.615 -178.175C130.104 -179.758 125.247 -180.391 120.39 -180.391C95.4101 -180.391 67.6545 -159.497 43.0215 -141.451C35.0418 -135.436 27.4091 -129.737 19.4294 -124.672C13.5314 -120.873 8.67411 -117.391 4.85773 -114.858C3.46995 -113.908 1.73526 -112.958 0.000538933 -112.009V-113.275C1.38831 -114.225 2.77613 -114.858 4.16391 -115.808C8.32723 -118.34 13.1844 -121.506 19.0824 -125.305Z" fill="#62708C"/>
<path d="M18.664 -97.4844C22.8119 -100.012 27.9967 -103.488 33.8728 -107.279C42.1685 -112.651 49.773 -118.654 58.0687 -124.657C59.797 -125.921 61.8709 -127.501 64.2904 -129.397C78.1167 -140.14 97.1277 -154.99 114.756 -154.99C119.595 -154.99 124.089 -153.726 128.237 -151.514C158.654 -134.452 140.335 -93.3768 129.274 -69.0475C127.891 -66.2038 126.854 -63.3601 125.817 -60.8324C118.558 -43.7703 111.3 -26.0762 106.115 -7.75024C105.078 -4.27463 104.041 -0.16712 103.004 4.25639C98.1647 24.1622 91.5972 51.3352 75.0058 61.1301C72.2405 62.7099 69.4753 63.6579 66.3644 63.9738C65.3274 63.9738 64.6362 64.2898 63.5992 64.2898C43.2055 64.2898 23.1575 36.1689 8.29434 15.3152C5.52909 11.5236 3.10949 8.04798 1.03555 5.2043V3.62447C3.45514 6.78412 6.22036 10.5757 9.33126 14.6832C23.8488 35.221 44.2424 63.0259 63.9448 63.0259C64.6361 63.0259 65.6731 63.0259 66.3644 62.7099C69.1296 62.394 71.8949 61.4461 74.6601 59.8663C90.9059 50.3873 97.4734 23.2143 102.313 3.62447C103.35 -0.799041 104.386 -4.9066 105.423 -8.38221C110.608 -27.0242 118.213 -44.7182 125.126 -61.7803C126.163 -64.308 127.545 -67.1517 128.582 -69.9954C139.298 -94.3247 157.272 -134.768 127.891 -151.514C124.089 -153.726 119.595 -154.674 115.102 -154.674C97.8191 -154.674 79.1537 -140.14 65.3275 -129.397C63.2535 -127.817 61.1795 -126.237 59.1056 -124.657C50.8099 -118.338 42.8598 -112.651 34.9097 -107.279C29.3793 -103.488 23.8488 -100.012 19.7009 -97.4844C14.1704 -94.0087 8.98565 -90.8491 3.10951 -87.0575C2.4182 -86.7415 2.07254 -86.4256 1.38123 -86.1096V-87.3735C1.72689 -87.6894 2.07252 -88.0054 2.76383 -88.0054C7.60301 -90.8491 13.1335 -94.3247 18.664 -97.4844Z" fill="#62708C"/>
<path d="M198.999 126.42C196.911 128.629 193.432 132.1 184.039 132.731C149.249 135.255 96.7162 139.357 52.1851 175.959L51.8372 176.274C36.5296 188.896 24.3532 204.672 15.3078 223.604C12.8725 228.653 8.69776 231.808 4.17507 231.808C2.78348 231.808 1.73976 231.492 0.348162 231.177V229.915C1.73976 230.546 2.78348 230.861 4.17507 230.861C8.34986 230.861 12.1768 228.022 14.612 223.289C23.6574 204.357 36.1817 188.265 51.4893 175.643L51.8372 175.328C96.3683 138.41 149.249 134.624 184.039 132.1C193.084 131.469 196.563 128.313 198.303 126.105C202.825 120.741 203.173 112.852 202.825 110.328C197.955 91.0806 192.04 67.1001 194.128 40.5954C197.955 -3.89468 217.437 -42.0741 236.572 -79.3069C251.879 -108.967 268.926 -142.729 263.012 -157.874C252.227 -185.326 208.74 -224.452 190.301 -239.913C178.82 -249.694 164.904 -254.743 149.249 -254.743C140.204 -254.743 132.55 -253.165 127.679 -251.588C95.6725 -242.122 50.4456 -220.665 0.000241357 -191.321V-192.583C50.4456 -221.927 95.6725 -243.384 127.331 -252.534C132.202 -254.112 140.204 -255.689 149.249 -255.689C165.252 -255.689 179.168 -250.641 190.997 -240.544C209.435 -225.083 252.923 -185.641 263.708 -158.19C269.97 -142.413 252.575 -108.651 237.267 -78.6758C218.481 -41.7585 198.651 -3.57913 194.824 40.9109C192.736 67.1001 198.651 91.0806 203.521 110.328C204.217 112.537 203.521 121.056 198.999 126.42Z" fill="#62708C"/>
<path d="M133.398 98.2765C125.387 102.07 114.59 103.967 104.141 105.547C96.4786 106.812 88.4677 108.076 81.8501 110.289C77.6705 111.553 73.1426 113.766 68.2665 115.979C58.1658 120.404 47.0203 125.462 36.5713 125.462C34.4816 125.462 32.7401 125.146 30.9986 124.83C30.6503 124.83 29.9537 124.514 29.6054 124.514C14.9769 120.404 6.96603 103.65 7.16356e-05 88.1608V85.3158V85.632C6.96603 101.438 14.6286 119.14 29.6054 123.249C29.9537 123.249 30.6503 123.566 30.9986 123.566C32.7401 123.882 34.4816 124.198 36.5713 124.198C46.672 124.198 57.8175 119.14 67.5698 114.714C72.446 112.502 76.9739 110.605 81.1534 109.024C87.7711 106.812 95.782 105.547 103.793 104.283C114.242 102.702 125.039 101.121 132.702 97.012C149.768 88.477 148.027 72.6713 146.285 56.2334C145.589 49.595 144.892 42.9566 145.24 36.9505C149.768 -15.5243 171.363 -57.5674 192.261 -98.346C201.665 -116.681 202.361 -136.912 194.35 -155.246C185.643 -174.845 166.835 -190.967 143.499 -199.186C136.185 -201.715 128.522 -202.98 120.859 -202.98C87.4229 -202.98 55.7277 -179.587 27.8639 -159.04C19.8531 -153.35 12.5388 -147.66 5.22454 -142.918C3.48305 -141.654 1.74156 -140.705 7.16356e-05 -139.441V-140.705C1.39326 -141.654 2.78641 -142.602 4.5279 -143.55C11.4939 -148.292 19.1565 -153.666 26.8191 -159.672C54.6829 -180.535 86.378 -203.928 120.511 -203.928C128.522 -203.928 136.185 -202.663 143.499 -200.135C167.183 -191.916 185.991 -175.794 195.047 -155.879C203.406 -137.228 202.709 -116.997 192.957 -98.346C172.059 -57.8835 150.813 -15.8404 146.285 36.6344C145.937 42.6406 146.633 49.2789 147.33 55.9173C149.42 72.6713 151.161 89.4253 133.398 98.2765Z" fill="#62708C"/>
<path d="M155.845 114.815C148.919 116.392 141.992 117.969 135.066 119.231C98.702 126.801 67.533 133.425 36.3639 159.29L35.6714 159.921C28.3986 165.914 22.8574 168.753 18.3552 168.753C17.6626 168.753 16.9699 168.753 16.2773 168.438C9.35082 166.861 6.23391 158.344 2.42437 147.304C1.73172 145.727 1.3854 143.834 0.692753 142.257V139.103C1.73172 141.626 2.77065 144.465 3.46329 146.989C6.92652 157.713 10.3898 166.23 16.6236 167.492C21.1258 168.438 27.0132 165.599 34.9787 158.975L35.6714 158.344C67.1867 132.479 98.7021 125.855 134.72 117.969C141.3 116.708 148.226 115.13 155.499 113.553C180.781 107.876 176.625 86.111 172.469 64.9773C170.737 55.8298 168.659 46.367 169.352 38.4812C173.508 -10.0948 193.941 -50.1542 213.681 -88.9519C216.105 -93.6833 218.53 -98.0993 220.954 -102.515C233.768 -125.226 244.504 -144.783 228.919 -169.071C217.144 -187.366 199.482 -202.191 182.166 -216.385C179.049 -218.909 175.932 -221.432 172.815 -224.271C166.235 -229.949 157.231 -232.787 146.148 -232.787C103.551 -232.787 37.7492 -191.466 6.60342e-05 -166.547V-167.178C38.0955 -192.097 103.204 -233.103 146.148 -233.103C157.577 -233.103 166.928 -230.264 173.508 -224.271C176.625 -221.747 179.741 -219.224 182.512 -216.385C199.828 -201.875 217.491 -187.05 229.266 -168.755C245.196 -144.152 233.768 -123.334 221.3 -101.254C218.876 -96.8376 216.452 -92.4216 214.027 -87.6902C194.287 -48.8925 173.854 -9.14847 169.698 39.4275C169.005 47.3133 170.737 56.7761 172.815 65.9235C177.664 86.7418 182.166 108.822 155.845 114.815Z" fill="#62708C"/>
<path d="M887.005 569.971C895.686 581.974 906.798 597.135 902.979 607.242C901.59 611.348 897.423 614.507 891.519 616.718C890.478 617.034 889.089 617.349 887.7 617.349C874.157 617.349 852.974 598.398 834.223 581.974C822.416 571.551 810.957 561.443 804.359 558.601C772.065 545.335 727.269 539.018 688.03 533.332C672.403 531.121 657.819 528.91 644.276 526.699C613.371 521.33 583.507 518.487 555.727 518.487C464.4 518.487 387.31 548.493 327.583 607.558C320.985 614.191 310.914 617.665 298.413 617.665C259.174 617.665 192.154 582.921 144.581 518.803C116.106 480.269 75.1305 401.621 117.842 307.181C134.858 269.279 160.554 251.591 198.058 251.591C226.532 251.591 259.174 261.067 297.024 272.121C343.556 285.703 395.991 301.18 452.593 301.18C496.694 301.18 536.975 292.02 576.215 273.069C697.058 214.32 700.531 107.562 690.113 21.0178C685.946 -12.7785 692.544 -39.3102 709.212 -56.0504C721.019 -67.737 736.645 -74.0541 755.049 -74.0541C789.775 -74.0541 833.528 -49.4175 849.155 -2.35532C864.087 41.8642 829.014 82.2934 788.386 128.724C742.548 181.156 690.808 240.852 700.878 320.447C705.74 359.929 721.713 397.831 743.243 421.52C759.564 439.524 774.148 441.419 789.08 442.998C800.887 444.262 812.693 445.525 826.931 453.737C837.695 460.054 841.168 470.478 844.64 481.848C847.071 489.429 849.502 497.641 854.711 504.274C857.489 507.748 862.35 508.696 867.906 509.327C874.851 510.275 882.491 511.538 886.658 519.751C889.436 525.436 885.616 532.069 882.144 538.386C879.018 543.756 875.893 549.441 876.935 553.863C877.977 557.021 882.144 563.023 887.005 569.971ZM880.755 537.123C884.227 530.806 887.7 524.804 885.269 520.067C881.449 512.802 874.504 511.854 867.906 510.591C862.35 509.643 856.794 509.012 853.669 504.59C848.113 497.641 845.682 489.745 843.251 481.848C839.779 471.109 836.654 460.686 826.236 454.685C812.346 446.788 800.539 445.525 789.08 444.262C773.454 442.367 758.522 440.787 741.854 422.152C719.977 397.831 704.003 359.929 699.142 320.131C689.072 239.904 741.159 179.892 786.997 127.145C827.278 81.03 862.003 40.9166 847.418 -2.35532C832.139 -48.4699 789.427 -72.7907 755.397 -72.7907C737.687 -72.7907 722.061 -66.7895 710.948 -55.4187C694.975 -38.9943 688.377 -12.7785 692.544 20.3861C702.962 107.562 699.489 215.268 577.604 274.332C538.017 293.599 497.389 302.759 452.94 302.759C395.991 302.759 343.209 287.282 296.677 273.701C259.174 262.646 226.532 253.17 198.405 253.17C161.249 253.17 137.289 269.91 120.273 307.497C77.9085 400.99 118.537 479.006 146.664 517.224C191.807 578.815 259.521 615.454 298.761 615.454C310.914 615.454 319.943 612.296 326.541 605.979C386.963 546.598 464.052 516.276 556.421 516.276C584.549 516.276 614.413 519.119 645.665 524.488C659.208 527.015 673.793 528.91 689.419 531.121C729.006 536.807 773.801 543.124 806.443 556.705C813.388 559.548 824.5 569.34 837.001 580.395C855.405 596.819 876.24 615.454 889.089 615.454C890.13 615.454 891.172 615.454 892.214 615.138C897.77 613.243 901.242 610.717 902.631 606.926C906.104 597.451 895.339 582.921 887.005 571.235C881.796 564.286 877.629 558.285 876.588 554.179C874.157 548.493 877.282 542.492 880.755 537.123Z" fill="#62708C"/>
<path d="M47.3477 353.813C42.8219 356.339 35.5109 357.918 26.8074 357.918C19.1483 357.918 9.74842 356.655 0.000450897 354.129V351.919C9.74842 354.76 19.1483 356.023 26.8074 356.023C34.8147 356.023 41.7775 354.76 45.9552 352.235C66.4955 340.238 75.5472 319.401 84.947 297.302C93.3024 278.044 101.658 258.47 118.369 244.579V243.947H119.065C138.213 228.793 163.975 221.217 197.745 221.217C230.818 221.217 265.284 228.478 293.136 234.16C312.284 237.949 328.646 241.422 339.09 241.422C345.357 241.422 349.187 240.159 350.579 237.949C352.668 234.792 350.927 228.793 346.053 220.269C322.031 180.49 273.292 85.4627 276.773 46.3151C279.558 15.3758 295.921 -16.8263 311.587 -47.7655C334.565 -92.9116 358.586 -139.32 341.179 -183.519C321.335 -234.032 234.3 -324.325 172.331 -332.217C168.849 -332.533 164.672 -332.849 160.842 -332.849C120.458 -332.849 61.6215 -311.065 0.000450897 -279.494V-281.704C61.6215 -313.275 120.458 -334.743 160.842 -334.743C165.02 -334.743 169.197 -334.427 172.679 -334.111C235.344 -326.219 323.424 -234.98 343.616 -184.151C361.372 -139.005 337.35 -92.2802 314.024 -46.8184C298.358 -15.8792 281.995 15.6915 279.21 46.3151C276.077 81.3585 318.55 170.072 348.142 219.322C354.061 228.794 355.453 235.108 352.668 239.212C350.579 242.369 346.053 243.947 339.09 243.947C328.298 243.947 311.587 240.475 292.439 236.686C264.588 231.003 230.122 223.742 197.745 223.742C164.323 223.742 139.257 231.003 120.457 246.157C104.095 259.733 95.3913 279.307 87.384 298.565C77.6361 320.348 68.2362 341.501 47.3477 353.813Z" fill="#62708C"/>
<path d="M429.2 676.1C388.158 659.361 350.943 651.465 315.118 643.885C243.121 628.409 180.863 615.144 123.821 534.922C114.083 521.341 106.083 504.286 97.3876 486.599C79.3014 449.015 60.5195 410.483 25.7383 394.375C16.3473 391.217 7.99986 388.69 0.000185328 386.479V384.269C8.34768 386.164 17.0429 389.006 27.1295 392.164C62.6063 408.588 81.3883 447.436 99.8223 485.336C108.518 503.022 116.517 520.078 125.908 533.343C182.254 612.933 244.164 626.198 315.814 641.358C351.638 648.938 388.854 656.834 430.244 673.573C457.025 684.312 475.112 696.945 482.416 709.894H479.633C471.981 698.208 454.591 686.207 429.2 676.1Z" fill="#62708C"/>
<path d="M613.603 424.711C612.213 425.341 610.474 425.656 609.083 425.656C602.824 425.656 596.913 420.301 591.35 415.261C588.22 412.426 585.438 409.906 583.004 408.646C579.875 407.386 577.093 406.756 573.964 406.756C568.4 406.756 563.88 409.276 558.317 411.796C556.23 412.741 554.492 413.686 552.058 414.631C546.842 416.836 541.626 418.096 536.41 418.096C531.195 418.096 526.327 417.151 521.111 415.891C515.895 414.631 510.332 413.371 503.725 413.371H503.03C489.816 413.371 477.646 419.671 466.172 425.656C454.697 431.641 442.527 437.942 429.314 437.942C423.055 437.942 417.144 436.682 410.885 433.847C406.017 431.642 402.192 428.806 399.062 426.286C393.499 422.191 388.979 418.726 380.981 418.726C378.547 418.726 376.113 419.041 373.331 419.671C351.077 424.396 341.341 442.982 331.605 460.937C327.085 469.443 322.565 477.948 316.653 484.878C305.179 498.739 289.879 506.614 274.232 506.614H273.537C257.889 506.299 242.937 498.423 231.115 484.563C215.468 465.663 186.607 403.921 198.43 373.365C201.907 364.229 208.861 358.559 218.597 356.354C222.074 355.409 225.204 355.094 228.333 355.094C238.417 355.094 246.067 359.189 254.76 363.914C256.846 364.859 258.932 366.12 261.019 367.065C278.752 376.2 296.486 378.09 315.263 379.98C322.565 380.61 330.214 381.555 337.864 382.815C346.557 384.39 354.207 386.91 361.509 389.43C371.245 392.895 380.633 396.045 390.717 396.045C397.671 396.045 404.278 394.47 411.232 391.32C425.489 385.02 441.136 379.035 458.522 379.035C464.085 379.035 469.996 379.665 475.56 380.925C478.342 381.555 480.776 382.185 483.21 382.815C493.294 385.02 502.682 387.225 512.07 387.225C519.72 387.225 527.022 385.65 534.324 382.815L537.454 381.555C550.667 376.2 564.228 370.215 578.136 370.215C585.786 370.215 592.74 371.79 599.695 375.255C608.388 379.665 620.21 397.936 619.862 410.851C620.906 417.781 618.472 422.191 613.603 424.711ZM599.695 377.46C593.088 373.995 586.134 372.42 578.832 372.42C565.271 372.42 552.058 378.09 538.844 383.445L535.715 384.705C528.413 387.855 520.763 389.43 512.766 389.43C503.03 389.43 493.294 387.225 483.21 385.02C480.776 384.39 477.994 383.76 475.56 383.13C469.996 381.87 464.433 381.24 458.87 381.24C441.831 381.24 426.532 387.225 412.276 393.21C404.973 396.36 398.019 397.936 391.065 397.936C380.633 397.936 371.245 394.785 361.161 391.005C353.859 388.485 346.209 385.65 337.864 384.39C330.214 383.13 322.565 382.185 315.263 381.555C296.486 379.665 278.405 377.775 260.323 368.325C258.237 367.065 256.151 366.12 254.064 365.175C245.372 360.449 238.07 356.669 228.333 356.669C225.204 356.669 222.422 356.984 218.945 357.929C209.557 360.134 203.298 365.49 200.168 373.995C188.346 404.236 216.859 465.032 232.506 483.933C243.981 497.478 258.585 505.039 273.537 505.354H274.232C289.184 505.354 303.788 497.793 315.263 484.248C320.826 477.318 325.346 469.128 329.867 460.307C339.603 442.037 349.687 423.136 372.636 418.096C375.418 417.466 378.199 417.151 380.633 417.151C388.979 417.151 393.847 420.931 399.758 425.026C403.235 427.546 406.712 430.066 411.232 432.272C417.144 435.107 423.055 436.367 428.966 436.367C441.484 436.367 452.958 430.696 464.781 424.396C476.603 418.411 489.121 412.111 502.682 412.111H503.377C509.984 412.111 515.895 413.371 521.111 414.631C526.327 415.891 530.847 416.836 536.063 416.836C541.278 416.836 545.799 415.891 550.667 413.686C552.753 412.741 554.839 411.796 556.578 410.851C562.141 408.016 567.009 405.496 572.921 405.496C576.05 405.496 579.18 406.126 582.657 407.701C585.438 408.961 588.22 411.481 591.697 414.631C596.913 419.356 602.477 424.396 608.04 424.396C609.431 424.396 610.474 424.081 611.865 423.451C616.038 421.246 618.472 417.466 618.472 411.796C619.167 398.881 607.345 381.24 599.695 377.46Z" fill="#62708C"/>
<path d="M837.765 536.42C835.681 537.051 831.514 537.367 826.653 537.367C816.236 537.367 776.997 535.788 715.882 517.476C664.837 502.006 605.111 493.797 547.469 493.797C453.018 493.797 390.167 506.741 309.259 577.148C303.356 582.2 295.717 584.726 286.341 584.726C251.27 584.726 198.141 549.996 165.153 505.479C139.457 470.749 102.302 400.026 140.846 315.096C157.514 278.787 178.001 273.736 198.141 273.736C222.795 273.736 253.7 282.892 289.466 293.311C337.733 307.519 392.251 323.305 452.671 323.305C500.938 323.305 545.038 313.202 588.096 292.364C723.521 226.693 725.258 104.191 714.84 17.9979C711.715 -8.83876 716.229 -29.9924 727.688 -41.6743C734.633 -48.6202 744.009 -52.4089 755.121 -52.4089C780.817 -52.4089 813.11 -33.1496 825.611 3.15883C836.723 36.31 805.471 71.9871 769.01 113.663C722.827 166.705 665.184 233.007 676.296 321.726C679.421 346.984 687.061 371.295 698.52 393.396C716.924 428.757 740.884 458.751 770.399 482.746C789.845 498.533 809.291 509.583 823.528 517.476C836.376 524.738 844.362 529.158 843.668 532.631C843.321 534.21 841.584 535.473 837.765 536.42ZM822.833 518.423C808.596 510.53 789.15 499.48 769.705 483.693C740.189 459.698 715.882 429.704 697.478 394.027C686.019 371.611 678.38 347.3 675.254 322.042C664.143 233.007 721.785 166.705 768.316 113.347C804.429 71.987 835.334 36.31 824.569 3.79027C812.416 -32.2025 780.469 -51.1461 755.121 -51.1461C744.009 -51.1461 734.98 -47.6731 728.383 -40.7271C716.924 -29.361 712.757 -8.52303 715.882 17.9979C726.299 104.507 724.563 227.324 588.444 293.311C545.385 314.149 500.938 324.252 452.671 324.252C391.903 324.252 337.386 308.15 289.119 293.942C253.353 283.523 222.795 274.367 198.141 274.367C178.695 274.367 158.208 279.419 141.888 315.412C103.691 399.71 140.846 470.117 166.195 504.847C198.141 548.417 251.964 583.779 286.341 583.779C295.37 583.779 303.009 581.253 308.565 576.517C347.803 542.419 384.264 520.633 423.503 508.32C457.185 497.585 494.34 493.165 547.469 493.165C605.111 493.165 664.837 501.69 716.229 517.16C777.344 535.473 816.236 537.051 826.653 537.051C831.514 537.051 835.681 536.735 837.765 536.42C840.89 535.788 842.626 534.841 842.973 533.578C842.973 529.79 834.639 525.054 822.833 518.423Z" fill="#62708C"/>
<path d="M754.632 -30.7627C773.339 -30.7627 793.777 -13.7288 800.359 1.72793C804.863 11.8221 801.398 29.1715 791.352 48.4135C781.999 66.3937 769.182 79.9578 759.828 82.4813C758.443 82.7968 757.057 83.1122 755.671 83.1122C753.939 83.1122 752.554 82.7968 751.168 82.4813C739.043 78.696 739.39 72.0717 740.083 57.2459C740.429 48.0981 741.122 35.7958 739.043 18.7619C736.272 -4.26545 740.083 -21.6148 745.625 -26.9773C746.665 -29.1854 749.089 -30.7627 754.632 -30.7627ZM740.083 18.131C742.161 35.4803 741.815 47.7826 741.122 56.9304C740.429 71.7563 740.429 77.1188 751.168 80.5887C753.593 81.535 756.364 81.535 759.136 80.5887C768.142 78.0651 780.267 64.8165 789.62 47.1517C799.666 28.5406 802.784 11.5067 798.627 1.72793C792.045 -13.0979 772.299 -29.8164 754.632 -29.8164C749.782 -29.8164 747.704 -28.5546 746.318 -26.9773C741.122 -21.2994 737.658 -4.26549 740.083 18.131Z" fill="#62708C"/>
<path d="M653.478 460.339C650.352 460.339 646.183 460.022 641.32 459.705C639.236 459.388 588.867 454.318 534.677 454.318C513.487 454.318 494.729 455.269 478.75 456.536C398.855 464.458 329.728 499 296.728 530.055C290.475 535.759 283.528 538.611 275.191 538.611C256.78 538.611 233.854 524.034 212.664 498.366C175.496 453.367 164.032 367.489 182.79 333.899C187.654 325.026 194.601 320.273 202.591 320.273C203.285 320.273 203.98 320.273 204.675 320.273C219.264 321.54 239.412 326.927 265.117 333.899C313.055 346.891 379.055 364.321 450.266 365.271C511.056 366.222 580.877 344.039 604.499 333.582C612.141 330.096 617.351 328.512 620.825 328.512C627.772 328.512 628.12 334.533 628.814 344.673C629.162 352.596 629.857 363.687 634.025 376.362C642.015 399.179 650.699 416.608 657.299 429.283C664.594 443.227 668.762 451.783 665.636 456.219C663.899 459.388 660.078 460.339 653.478 460.339ZM656.257 430.234C649.657 417.558 640.973 400.129 632.983 376.996C628.467 364.321 628.12 353.229 627.772 344.99C627.425 335.166 627.078 329.462 620.825 329.462C617.699 329.462 612.488 331.047 605.193 334.216C581.919 344.673 514.182 365.905 454.087 365.905C453.045 365.905 451.655 365.905 450.613 365.905C379.055 364.954 313.402 347.208 265.117 334.216C239.412 327.244 219.264 321.857 204.675 320.589C195.99 319.639 189.043 324.075 183.832 333.582C165.422 367.173 176.885 452.417 213.706 497.098C234.896 522.45 257.128 537.027 275.538 537.027C283.528 537.027 290.475 534.175 296.381 528.788C329.728 497.732 398.855 462.874 479.098 454.952C495.077 453.367 513.835 452.733 535.024 452.733C589.214 452.733 639.583 457.804 641.667 458.121C646.53 458.754 650.352 458.754 653.478 458.754C659.731 458.754 663.204 457.804 664.941 455.585C667.72 452.417 663.204 444.177 656.257 430.234Z" fill="#62708C"/>
<path d="M730.797 496.401C727.675 496.401 723.513 495.769 719.004 494.19C670.445 478.711 614.255 471.446 546.966 471.446C463.027 471.446 380.13 478.395 285.786 563.054C283.011 565.581 279.543 566.845 275.034 566.845C248.673 566.845 199.767 520.725 185.546 492.926C184.159 490.399 182.771 487.872 181.384 485.029C163.001 450.597 132.131 393.105 163.694 323.609C176.181 295.81 187.974 295.81 198.38 295.81C219.191 295.81 248.326 304.34 281.971 314.132C331.918 328.663 388.108 345.405 452.275 345.405C507.078 345.405 551.821 336.245 596.565 315.712C603.502 312.553 610.092 309.078 615.989 305.919C627.782 299.601 637.147 294.863 643.043 294.863C647.553 294.863 649.98 297.706 649.98 304.024C649.98 304.971 649.98 306.551 649.634 308.762C643.39 368.781 668.71 424.694 725.247 475.237C735.306 484.082 739.468 490.399 737.734 494.19C737.04 495.454 734.612 496.401 730.797 496.401ZM724.554 475.237C688.134 442.7 664.201 407.636 653.449 370.677C644.778 340.983 647.206 317.923 648.246 308.13C648.593 305.919 648.593 304.34 648.593 303.392C648.593 296.126 645.125 295.179 642.697 295.179C637.147 295.179 627.435 300.233 615.989 306.235C610.092 309.394 603.502 312.869 596.565 316.028C551.475 336.876 507.078 346.037 451.928 346.037C387.414 346.037 330.877 329.295 281.277 314.764C247.633 304.971 218.497 296.442 198.033 296.442C187.974 296.442 176.528 296.442 164.388 323.609C133.172 392.789 163.695 450.281 182.078 484.397C183.465 487.24 185.199 489.768 186.24 492.295C200.461 519.777 249.02 565.581 275.034 565.581C279.196 565.581 282.318 564.318 284.746 562.107C328.449 522.936 373.887 497.033 423.486 483.45C467.536 471.446 508.465 470.182 546.619 470.182C613.908 470.182 670.445 477.764 719.004 492.926C723.166 494.19 727.328 495.138 730.45 495.138C732.878 495.138 735.653 494.822 736.693 492.611C737.734 491.031 737.387 486.293 724.554 475.237Z" fill="#62708C"/>
<path d="M949.128 172.542C951.552 170.644 953.63 169.695 955.362 169.695C960.211 169.695 963.674 175.389 968.869 183.93C974.064 192.788 981.337 204.809 994.152 217.146L997.962 220.626C1012.51 234.545 1019.09 240.871 1017.36 244.351C1016.66 245.933 1014.24 246.566 1010.08 246.566C1006.62 246.566 1001.08 245.933 992.074 244.984C988.264 244.668 984.801 244.351 980.991 244.351C950.86 244.351 925.923 259.852 907.567 270.924C896.831 277.567 888.519 282.628 882.285 282.628C879.86 282.628 877.782 281.679 876.05 279.781C857.002 257.638 924.192 193.42 949.128 172.542ZM877.436 279.149C878.821 280.73 880.207 281.363 882.285 281.363C887.826 281.363 896.138 276.302 906.528 269.975C924.884 258.587 950.167 243.086 980.991 243.086C984.801 243.086 988.611 243.402 992.42 243.718C1001.08 244.984 1006.62 245.3 1010.08 245.3C1013.55 245.3 1015.28 244.984 1015.63 244.035C1016.66 241.504 1008.7 233.912 996.576 221.891L992.767 218.411C979.952 206.074 972.679 193.737 967.138 184.879C962.289 176.971 959.172 171.593 955.362 171.593C953.977 171.593 952.245 172.542 950.167 174.123C919.343 199.431 860.465 259.219 877.436 279.149Z" fill="#62708C"/>
<path d="M948.368 199.81C960.553 199.81 976.219 217.16 976.219 225.362C976.219 228.832 973.782 230.725 969.952 230.725C951.85 231.041 933.051 241.451 919.125 248.706C910.77 253.123 904.852 256.277 901.371 256.277C900.326 256.277 899.282 255.962 898.586 255.331C897.89 254.7 897.541 253.438 897.541 251.545C898.934 236.403 930.614 206.119 943.494 200.126C945.235 200.126 946.976 199.81 948.368 199.81ZM900.326 252.176C900.326 253.438 900.326 254.069 900.675 254.069C900.675 254.069 901.023 254.384 901.371 254.384C904.156 254.384 910.422 250.914 917.733 247.129C931.658 239.558 951.153 228.832 969.604 228.832C972.389 228.832 973.434 227.886 973.434 225.678C973.434 218.422 958.812 202.334 948.02 202.334C946.628 202.334 945.583 202.649 944.539 202.965C931.31 208.959 901.719 238.612 900.326 252.176Z" fill="#62708C"/>
<path d="M856.538 363.117C832.914 360.591 810.333 345.748 799.563 325.221C789.488 306.589 784.277 274.693 815.196 229.85C828.398 210.586 842.989 191.007 856.886 172.059C896.838 118.057 934.705 67.2131 949.992 16.0535C967.709 -41.7378 953.466 -89.4235 905.523 -133.951C863.834 -172.479 808.943 -194.585 754.747 -194.585C714.1 -194.585 677.622 -181.637 652.261 -157.952C624.468 -132.056 610.572 -93.8447 612.309 -48.0538C612.656 -37.3166 613.351 -26.2636 613.698 -14.579C615.783 26.7907 618.215 73.8449 610.919 113.004C602.581 157.848 582.431 185.638 549.427 197.954C531.709 204.586 515.034 207.744 499.748 207.744C471.955 207.744 448.331 196.691 431.308 175.848C402.473 140.479 395.525 79.5293 413.937 24.5801C453.89 -93.5289 549.427 -163.952 691.171 -239.428C798.868 -296.588 889.542 -314.589 971.878 -325.01C978.132 -325.642 983.69 -326.273 989.249 -326.273C1023.64 -326.273 1039.97 -310.483 1060.47 -290.272C1068.46 -282.693 1076.45 -274.482 1086.87 -266.271C1098.68 -256.797 1108.76 -251.113 1117.79 -246.06C1132.38 -237.849 1144.89 -230.902 1158.44 -212.27C1185.88 -175.005 1149.06 -152.268 1110.5 -128.267C1090 -115.635 1068.81 -102.371 1057.69 -86.8971C986.47 11.0008 1015.3 115.53 1065.68 180.901C1080.27 199.533 1101.12 217.218 1123.7 235.85C1151.14 258.588 1179.28 282.273 1195.61 308.484C1202.56 319.853 1204.64 327.432 1201.52 331.853C1199.43 335.011 1194.57 336.59 1187.27 336.59C1174.07 336.59 1152.88 331.537 1128.21 325.853C1093.82 317.642 1051.09 307.537 1013.22 307.537C993.07 307.537 976.047 310.379 962.151 316.063C948.254 321.748 936.79 329.958 925.325 337.853C906.913 351.117 889.195 363.433 864.529 363.433C861.749 363.749 859.317 363.433 856.538 363.117ZM961.803 315.432C976.047 309.431 992.723 306.589 1013.22 306.589C1051.09 306.589 1094.17 316.695 1128.56 324.906C1152.88 330.59 1174.07 335.643 1187.27 335.643C1194.22 335.643 1198.74 334.064 1200.82 331.222C1203.6 327.116 1201.52 319.537 1194.92 308.8C1178.93 282.588 1150.45 259.219 1123.35 236.482C1101.12 217.849 1079.92 200.165 1065.33 181.533C1035.8 143.321 1018.08 99.7404 1014.61 55.5285C1010.79 5.00056 1025.03 -43.001 1056.99 -87.2129C1068.46 -103.003 1089.65 -116.266 1110.15 -128.898C1148.36 -152.583 1184.49 -175.321 1157.74 -211.638C1144.19 -230.27 1131.69 -237.218 1117.44 -245.113C1108.41 -250.166 1097.99 -255.85 1086.18 -265.324C1076.1 -273.535 1067.76 -281.43 1059.77 -289.325C1039.28 -309.22 1022.95 -325.01 989.249 -325.01C984.038 -325.01 978.132 -324.694 972.226 -323.747C890.237 -313.325 799.563 -295.641 691.866 -238.165C550.47 -162.689 454.932 -92.5815 414.98 25.2118C396.567 79.8451 403.515 140.479 432.003 175.848C448.678 196.375 472.302 207.428 499.748 207.428C515.034 207.428 531.362 204.27 549.08 197.638C581.737 185.638 601.539 158.163 609.877 113.32C617.172 74.1607 614.74 27.4224 612.656 -14.2632C611.961 -25.9478 611.614 -37.0008 611.266 -47.738C609.877 -93.8447 623.773 -132.372 651.566 -158.584C676.927 -182.584 713.752 -195.532 754.747 -195.532C809.29 -195.532 864.529 -173.426 906.218 -134.583C931.579 -110.898 947.56 -86.5813 954.508 -60.0541C960.761 -36.3692 959.719 -11.421 951.034 16.0535C935.4 67.2131 897.533 118.373 857.58 172.374C843.684 191.322 829.093 210.586 815.891 230.166C785.319 274.693 790.53 306.273 800.258 324.59C811.027 344.801 832.914 359.328 856.538 361.854C859.317 362.17 861.749 362.17 864.529 362.17C888.847 362.17 906.218 349.854 924.631 336.906C936.095 329.327 947.907 321.116 961.803 315.432Z" fill="#62708C"/>
<path d="M833.159 323.665C824.128 317.676 818.571 309.165 817.181 298.763C813.013 267.874 843.232 222.485 870.672 193.171C904.712 156.607 938.404 117.522 954.729 79.698C955.424 77.8068 956.813 72.4483 958.202 65.8291C963.413 43.4497 972.443 5.94067 985.295 5.94067C986.337 5.94067 987.727 6.25589 988.769 6.88629C993.979 9.72311 995.715 15.3967 993.631 24.2224C991.895 31.4721 988.074 39.6673 984.6 46.917C980.78 54.4818 977.654 61.4163 977.654 65.1987C977.654 74.97 982.864 79.0676 987.727 83.4804C991.547 86.6324 995.368 90.0997 996.757 95.7733C998.494 103.338 995.021 109.012 991.895 114.37C988.769 119.413 985.643 124.457 986.685 131.391C988.421 143.684 1031.49 188.128 1069.35 227.213C1100.61 259.678 1127.71 287.731 1127.36 293.09C1127.36 293.405 1127.01 293.72 1127.01 294.035C1124.58 295.927 1119.72 296.872 1112.42 296.872C1101.31 296.872 1085.68 294.666 1067.62 291.829C1045.73 288.677 1020.72 284.895 999.189 284.895C982.516 284.895 969.665 287.101 960.634 291.514C955.771 294.035 950.214 296.872 944.309 300.024C918.258 313.578 886.303 330.599 858.862 330.599C849.137 330.914 840.453 328.393 833.159 323.665ZM960.634 290.883C970.012 286.471 982.516 284.264 999.536 284.264C1021.07 284.264 1046.08 287.731 1067.96 291.199C1086.02 293.72 1101.65 296.242 1112.77 296.242C1119.72 296.242 1124.23 295.296 1126.66 293.405C1126.66 293.405 1126.66 293.405 1126.66 293.09C1127.01 288.047 1098.88 259.048 1069 227.843C1031.14 188.443 987.727 143.999 985.99 131.391C984.948 124.457 988.074 119.098 991.2 113.74C994.673 108.066 997.799 103.023 996.063 95.7733C994.673 90.0997 991.2 87.2629 987.379 83.7956C982.516 79.3828 977.306 74.97 976.959 64.8835C976.959 60.7859 980.085 54.1666 983.906 46.2866C987.379 39.0369 991.2 30.8417 992.937 23.9072C995.021 15.712 993.631 10.3535 988.769 7.51668C987.727 6.88628 986.685 6.57112 985.643 6.57112C973.486 6.57112 964.455 45.0257 959.592 65.8291C957.855 72.7635 956.813 77.8068 955.771 79.698C939.099 117.522 905.406 156.607 871.367 193.171C844.274 222.169 814.055 267.243 818.223 297.818C819.613 308.22 824.823 316.415 833.506 322.089C840.453 326.817 849.137 329.023 859.21 329.023C886.302 329.023 918.258 312.002 943.961 298.448C950.214 296.242 955.771 293.405 960.634 290.883Z" fill="#62708C"/>
<path d="M846.002 284.923C842.881 258.947 873.402 217.765 888.663 202.243C915.022 175 933.404 151.875 945.543 136.67C957.682 121.464 964.272 113.228 968.434 113.228C971.556 113.228 972.943 116.712 973.984 125.265C981.614 189.889 1027.4 224.734 1054.45 245.642C1066.24 254.829 1074.22 260.847 1074.57 265.916C1074.57 267.5 1074.22 268.767 1072.83 269.717C1070.4 272.252 1066.24 273.202 1060.34 273.202C1053.76 273.202 1045.08 271.618 1035.37 270.034C1022.54 267.817 1007.97 265.599 993.406 265.599C973.29 265.599 956.989 270.351 943.462 279.537C924.733 292.842 896.987 307.097 875.136 307.097C867.159 307.097 860.569 305.197 855.02 301.712C850.164 297.594 846.696 291.892 846.002 284.923ZM875.83 305.83C897.334 305.83 924.733 291.575 943.462 278.587C956.989 269.084 973.637 264.332 993.753 264.332C1008.67 264.332 1023.23 266.866 1036.07 268.767C1045.78 270.351 1054.45 271.935 1061.04 271.935C1066.59 271.935 1070.4 270.984 1072.83 268.767C1073.87 267.817 1074.22 266.866 1074.22 265.599C1073.87 261.164 1065.89 254.829 1054.45 245.959C1027.05 225.051 981.267 189.889 973.637 124.949C972.596 117.346 971.209 113.861 969.128 113.861C965.313 113.861 958.376 122.731 946.931 136.986C934.791 152.192 916.409 175.634 890.05 202.56C874.789 218.082 844.268 258.947 847.39 284.606C848.083 291.575 851.552 296.96 856.754 300.445C861.61 303.93 868.2 305.83 875.83 305.83Z" fill="#62708C"/>
<path d="M548.452 24.4576C551.902 73.6736 536.377 107.746 520.853 123.205C513.608 130.146 505.673 133.932 498.773 133.932C488.769 133.932 481.179 126.675 477.384 113.741C453.925 29.19 533.963 -59.7774 543.967 -67.3491C546.727 -69.5575 548.797 -69.873 550.177 -68.611C552.592 -66.4026 551.902 -58.8309 550.522 -44.9495C548.797 -28.8597 546.382 -4.25168 548.452 24.4576ZM548.797 -67.3491C548.452 -67.6645 548.452 -67.6646 548.107 -67.6646C547.762 -67.6646 546.727 -67.3491 545.002 -66.0871C535.343 -58.8309 455.65 29.5055 479.109 113.11C482.559 125.414 489.459 132.354 498.773 132.354C505.328 132.354 512.918 128.568 519.818 121.943C535.343 106.8 550.522 73.3581 547.072 24.4576C545.002 -4.56716 547.417 -28.8596 548.797 -45.265C549.832 -56.938 550.522 -65.7716 548.797 -67.3491Z" fill="#62708C"/>
<path d="M575.75 22.1479C579.929 70.2247 569.481 109.129 546.497 131.586C534.308 143.289 519.682 149.931 505.056 149.931C483.812 149.931 467.097 136.647 462.221 116.087C447.595 55.9915 470.231 1.58875 491.822 -33.2037C517.244 -74.0056 549.631 -103.105 565.302 -112.594C570.874 -116.073 575.053 -118.287 577.491 -118.287C578.536 -118.287 579.232 -117.971 579.581 -117.338C581.67 -115.124 580.625 -109.431 579.232 -97.7277C576.098 -77.4849 570.874 -38.8969 575.75 22.1479ZM578.884 -117.022C578.536 -117.338 578.188 -117.654 577.491 -117.654C575.402 -117.654 571.223 -115.44 565.999 -112.277C530.826 -90.7693 436.799 6.64946 463.266 115.455C468.141 135.698 484.509 148.666 505.404 148.666C520.03 148.666 534.308 142.34 546.149 130.637C568.785 108.18 579.232 69.5921 575.402 22.1479C570.178 -38.8969 575.75 -77.4849 578.536 -98.044C579.58 -108.798 580.277 -115.124 578.884 -117.022Z" fill="#62708C"/>
<path d="M595.38 24.9614C599.539 84.6633 586.715 131.73 560.026 157.632C546.162 170.899 529.525 178.165 511.501 178.165C477.187 178.165 448.072 152.894 439.061 115.304C425.89 59.7085 437.328 5.06082 472.681 -47.0598C508.728 -100.128 558.639 -134.243 585.328 -150.038C598.846 -157.935 604.738 -161.409 606.818 -158.882C608.551 -156.987 607.511 -150.985 605.085 -139.613C600.232 -115.29 589.487 -63.8016 595.38 24.9614ZM606.124 -158.566C605.778 -158.882 605.431 -158.882 604.738 -158.882C601.965 -158.882 595.726 -155.408 585.675 -149.406C497.29 -96.9693 412.372 0.00669322 439.754 114.988C448.766 152.262 477.187 177.217 511.155 177.217C528.831 177.217 545.468 170.267 558.986 157C585.675 131.414 597.806 84.3474 593.993 24.9614C588.101 -63.8016 598.846 -115.29 604.045 -140.245C606.471 -150.669 607.857 -156.987 606.124 -158.566Z" fill="#62708C"/>
<path d="M507.877 96.2876C506.141 96.2876 504.404 95.0314 503.015 92.8331C496.416 81.2138 496.416 41.6451 514.476 17.4642C516.907 14.3239 520.032 14.6379 522.811 18.7204C529.409 29.0836 532.535 62.6856 514.128 91.577C512.045 94.7174 509.961 96.2876 507.877 96.2876ZM520.727 19.9765C519.685 18.7204 518.991 17.7783 518.296 17.7783C517.601 17.7783 516.907 18.4064 516.907 19.0344C499.889 42.2732 499.195 81.2138 505.793 92.2051C506.488 93.7752 507.53 94.4033 508.572 94.4033C509.613 94.4033 511.003 93.1471 512.392 90.9489C529.409 62.6856 526.978 29.7117 520.727 19.9765Z" fill="#62708C"/>
<path d="M282.565 193.383C280.135 196.539 273.887 198.117 262.431 198.117C255.142 198.117 246.463 197.486 236.397 196.855C223.9 196.224 209.668 195.277 195.088 195.277C148.573 195.277 117.331 204.114 96.5029 223.681C77.0635 237.252 66.3025 259.344 56.93 278.912C45.4747 302.582 35.4079 323.096 13.5386 323.096C11.1087 323.096 8.67876 322.781 6.24884 322.465C4.51319 322.149 2.77753 321.834 1.04188 321.203V319.625C3.12466 320.256 4.86034 320.571 6.59599 320.887C9.02591 321.203 11.4558 321.518 13.5386 321.518C34.3665 321.518 44.0861 301.32 55.1943 278.281C64.5669 258.713 75.675 236.305 95.1144 222.419C116.289 202.851 147.878 193.699 194.741 193.699C209.32 193.699 223.553 194.646 236.049 195.277C246.116 195.908 254.795 196.539 262.084 196.539C272.845 196.539 278.747 195.277 280.829 192.436C281.871 190.858 281.871 188.965 280.829 186.44C258.613 132.787 240.215 64.9327 241.951 43.7873C245.075 7.17729 262.779 -27.5391 279.788 -60.993C300.616 -102.021 320.402 -140.525 307.906 -172.717C290.549 -217.532 210.709 -295.486 167.318 -300.852C165.235 -301.167 162.805 -301.167 160.375 -301.167C126.703 -301.167 67.3438 -279.39 0.000421648 -243.096V-244.99C66.9967 -280.969 126.356 -302.745 160.375 -302.745C162.805 -302.745 165.235 -302.745 167.665 -302.43C211.403 -297.064 291.938 -218.479 309.641 -173.348C322.485 -140.525 302.352 -101.39 281.524 -60.3618C264.514 -26.9079 246.811 7.49289 243.686 43.7873C241.951 62.0923 258.613 128.053 282.218 185.809C283.954 188.965 283.954 191.49 282.565 193.383Z" fill="#62708C"/>
<path d="M230.03 152.298C223.438 160.815 209.906 161.761 191.17 163.023C189.088 163.023 187.007 163.338 184.925 163.338C179.027 163.654 172.781 163.969 166.189 164.284C135.656 165.231 100.613 166.177 69.3867 192.358L69.0399 192.673C51.6918 206.552 41.2829 230.84 32.2619 252.605C22.894 274.37 15.2608 292.98 2.42323 292.98C2.07627 292.98 1.72935 292.98 1.38239 292.98V292.034C1.72935 292.034 2.07627 292.034 2.42323 292.034C14.2199 292.034 22.2 273.424 31.221 252.29C40.242 230.525 50.6509 206.237 68.3459 192.042L68.6929 191.727C100.266 165.546 135.31 164.284 166.189 163.338C172.781 163.023 179.027 163.023 184.925 162.392C187.007 162.076 189.088 162.076 191.17 162.076C209.906 160.815 223.091 159.868 229.336 151.667C235.234 144.097 234.193 129.587 226.56 105.299C219.274 82.5877 216.845 62.0846 218.58 42.2125C222.05 1.52181 240.786 -34.7528 258.828 -70.0811C277.564 -106.987 295.259 -141.684 286.238 -165.341C270.624 -205.086 196.028 -275.112 165.148 -278.897C164.454 -278.897 163.413 -279.212 161.332 -279.212C135.309 -279.212 77.02 -259.655 1.0354 -217.388V-218.649C76.673 -260.917 135.309 -280.158 161.332 -280.158C163.066 -280.158 164.454 -280.158 165.148 -279.843C196.375 -276.058 271.665 -205.401 287.279 -165.657C296.647 -141.369 278.952 -106.671 259.869 -69.4502C241.827 -34.4374 223.438 2.15269 219.968 42.5279C218.233 62.4001 221.009 82.9031 227.948 105.299C235.234 130.218 235.928 144.097 230.03 152.298Z" fill="#62708C"/>
<path d="M862.808 437.548C811.093 432.186 749.659 376.353 732.999 333.769C704.191 259.64 755.212 200.022 804.498 142.297C852.049 86.7796 896.822 34.1013 874.956 -29.9329C855.866 -85.7657 794.433 -115.732 746.188 -115.732C720.157 -115.732 697.943 -107.216 683.019 -92.0745C665.317 -74.0944 658.376 -46.6512 662.888 -12.8992C678.507 103.182 683.019 230.304 540.367 267.842C524.054 272.258 507.741 274.466 492.47 274.466C432.424 274.466 394.245 243.237 372.726 217.056C331.423 166.901 317.192 91.5112 336.976 30.0005C353.983 -22.3624 387.303 -72.8327 439.019 -124.88C515.724 -202.163 620.196 -268.72 758.683 -328.023L764.583 -330.547C822.894 -355.466 882.939 -381.332 946.108 -395.527C949.926 -396.473 954.091 -397.42 958.603 -398.366C978.04 -403.098 1002.68 -409.091 1023.51 -409.091C1031.84 -409.091 1039.13 -408.145 1045.03 -406.252C1054.05 -403.413 1059.26 -397.735 1064.12 -392.373C1067.93 -388.272 1071.41 -384.171 1076.96 -381.017C1080.43 -379.124 1087.37 -376.601 1094.66 -374.077C1106.46 -369.976 1118.61 -365.56 1122.43 -361.775C1129.72 -353.889 1127.63 -349.157 1125.9 -344.426C1124.51 -341.271 1123.12 -338.117 1124.86 -333.386L1126.24 -329.6C1136.66 -301.526 1136.66 -301.526 1160.95 -295.217C1165.47 -293.956 1171.37 -292.378 1178.31 -290.486C1198.44 -284.808 1206.42 -275.66 1214.4 -267.143C1220.65 -260.519 1226.21 -254.21 1236.96 -249.163C1237.31 -249.163 1237.66 -249.163 1238.01 -249.163C1250.5 -249.163 1345.25 -243.485 1352.54 -222.351C1354.63 -216.673 1350.11 -210.364 1340.05 -204.055C1327.21 -195.854 1317.14 -194.908 1310.89 -194.908C1307.77 -194.908 1304.99 -195.223 1302.56 -195.539C1300.13 -195.854 1298.05 -195.854 1295.97 -195.854C1288.33 -195.854 1280.7 -193.961 1269.94 -170.303C1267.51 -164.625 1265.43 -159.578 1263.69 -155.793C1255.36 -136.236 1255.36 -135.921 1234.54 -128.035C1229.33 -126.142 1223.08 -123.618 1214.75 -120.149C1188.03 -108.793 1182.47 -96.1752 1175.53 -80.0877C1171.71 -71.5709 1167.55 -61.7923 1159.91 -51.0673C1151.58 -39.3961 1141.52 -29.9329 1132.15 -21.1006C1115.14 -5.0132 1099.17 10.1279 1093.97 35.363C1085.29 79.2091 1111.32 121.163 1140.82 159.962C1155.05 178.888 1184.55 200.653 1216.14 223.68C1269.24 263.11 1329.29 307.587 1329.64 348.91C1329.64 372.568 1323.04 390.548 1309.85 402.534C1295.27 415.783 1273.41 422.092 1242.87 422.092C1198.44 422.092 1143.6 408.528 1095.35 396.541C1057.18 387.078 1024.55 378.876 1003.38 378.876C998.518 378.876 994.7 379.192 991.576 380.138C971.445 385.501 955.133 397.172 939.861 408.528C919.383 423.353 899.946 437.548 871.832 437.548C868.709 438.179 865.585 437.864 862.808 437.548ZM990.535 378.246C994.006 377.299 998.171 376.984 1003.03 376.984C1024.2 376.984 1057.18 385.185 1095.35 394.648C1143.6 406.635 1198.09 420.199 1242.17 420.199C1272.37 420.199 1293.54 413.89 1307.42 401.273C1320.26 389.601 1326.51 371.937 1326.51 349.225C1326.17 308.849 1266.47 264.687 1214.06 225.888C1182.82 202.546 1152.97 180.781 1138.39 161.539C1108.54 122.424 1082.17 80.1554 1090.84 35.363C1096.05 9.49698 1112.36 -5.95955 1129.72 -22.3624C1139.09 -31.1947 1149.15 -40.6579 1157.48 -52.0137C1165.12 -62.7386 1169.28 -72.2018 1173.1 -80.7187C1180.39 -97.4369 1185.94 -110.37 1213.71 -122.041C1222.04 -125.511 1228.29 -128.035 1233.49 -129.927C1253.62 -137.813 1253.62 -137.813 1261.61 -156.424C1263.34 -160.525 1265.43 -165.256 1267.86 -170.934C1277.92 -193.646 1285.9 -198.062 1295.97 -198.062C1298.05 -198.062 1300.48 -197.747 1302.56 -197.747C1305.34 -197.431 1307.77 -197.431 1310.89 -197.431C1317.49 -197.431 1326.17 -198.377 1338.66 -206.263C1348.03 -212.257 1351.85 -217.619 1350.46 -222.351C1344.21 -240.646 1255.71 -247.586 1238.35 -247.586C1238.01 -247.586 1237.66 -247.586 1237.66 -247.586L1237.31 -248.532L1236.62 -247.586C1225.16 -252.949 1218.92 -259.573 1212.67 -266.197C1204.69 -275.029 1197.05 -283.231 1177.61 -288.909C1170.67 -290.801 1164.77 -292.378 1160.26 -293.64C1134.92 -300.264 1134.57 -300.58 1123.82 -329.6L1122.43 -333.386C1120.34 -338.748 1122.08 -342.533 1123.47 -346.003C1125.2 -350.419 1126.94 -354.205 1120.34 -360.829C1116.87 -364.614 1104.38 -368.715 1093.62 -372.5C1086.33 -375.024 1079.39 -377.547 1075.57 -379.44C1069.67 -382.594 1065.85 -387.01 1062.03 -391.111C1057.18 -396.473 1052.32 -401.52 1043.99 -404.359C1038.43 -406.252 1031.49 -407.198 1023.16 -407.198C1002.68 -407.198 978.387 -401.205 958.95 -396.789C954.438 -395.843 950.273 -394.581 946.455 -393.95C883.286 -379.755 823.241 -353.889 765.278 -328.969L759.377 -326.446C621.238 -267.143 517.112 -200.901 440.754 -123.934C389.386 -72.2018 356.066 -21.7315 339.406 30.0005C319.622 90.8803 333.852 165.324 374.808 215.163C395.98 241.029 433.812 271.627 492.817 271.627C508.088 271.627 524.054 269.419 540.02 265.318C680.589 228.412 676.077 102.236 660.805 -12.8992C656.293 -47.2821 663.235 -75.3562 681.283 -93.9671C696.555 -109.739 719.81 -118.256 746.188 -118.256C795.127 -118.256 857.602 -87.6583 877.039 -30.8792C899.252 34.1013 851.701 89.6186 805.886 143.243C756.948 200.338 706.62 259.64 734.734 332.507C751.047 374.46 811.44 429.662 862.461 434.709C865.238 435.025 868.014 435.025 870.791 435.025C897.864 435.025 916.953 421.145 937.084 406.32C953.397 395.91 969.71 383.923 990.535 378.246Z" fill="#62708C"/>
</g>
<defs>
<filter id="filter0_b_5384_788" x="-10" y="-10" width="1460" height="420" filterUnits="userSpaceOnUse" color-interpolation-filters="sRGB">
<feFlood flood-opacity="0" result="BackgroundImageFix"/>
<feGaussianBlur in="BackgroundImageFix" stdDeviation="5"/>
<feComposite in2="SourceAlpha" operator="in" result="effect1_backgroundBlur_5384_788"/>
<feBlend mode="normal" in="SourceGraphic" in2="effect1_backgroundBlur_5384_788" result="shape"/>
</filter>
<clipPath id="clip0_5384_788">
<rect width="1440" height="400" fill="white"/>
</clipPath>
</defs>
</svg>
