<svg width="111" height="20" viewBox="0 0 111 20" fill="none" xmlns="http://www.w3.org/2000/svg">
<path d="M0.0410405 3C1.07599 3.38261 1.94465 3.66724 2.77124 3.98714C7.05338 5.66013 11.1599 7.29247 15.287 8.87434C15.6524 9.01053 16.5284 8.9978 16.928 8.83172C21.7433 6.90545 31.6765 3.10092 31.9876 3C31.9876 3.78677 32.0297 4.39963 31.9588 5.11586C31.9397 5.30643 31.5988 5.52394 31.3611 5.62486C26.4162 7.63703 21.4671 9.63613 16.5137 11.6222C16.2306 11.728 15.9199 11.7333 15.6333 11.6374C10.6444 9.71043 5.6648 7.76391 0.694489 5.7978C0.421077 5.68855 0.149622 5.29271 0.097777 4.9929C0.00386828 4.4158 0.0410405 3.83282 0.0410405 3Z" fill="#3C24B2"/>
<path d="M0.0317383 11.3089C0.0317383 9.8578 0.0317383 9.84458 1.29413 10.0841C5.94065 10.9552 10.5808 11.8536 15.2298 12.6977C15.808 12.792 16.3986 12.7798 16.9725 12.662C21.6676 11.7302 26.358 10.7795 31.0436 9.80979C31.7641 9.65989 31.9949 9.83135 31.9949 10.5598C32.0116 12.1089 32.0507 12.1686 30.5927 12.4778C26.4842 13.3473 22.632 14.0327 18.5401 14.9664C16.8826 15.3303 15.1684 15.352 13.5023 15.0301C9.40745 14.212 5.33024 13.4061 1.22565 12.6561C0.289987 12.4866 0.0752689 12.1667 0.0317383 11.3089Z" fill="#3C24B2"/>
<path d="M30.8627 16.2148C31.678 16.2148 31.9666 16.3491 31.9387 17.2569C31.8898 18.7265 31.9421 18.7863 30.8627 18.8C25.9427 18.8407 21.0962 18.8613 16.1767 18.8951C11.2269 18.9308 6.10109 18.9837 1.1523 18.9999C-0.212316 18.9999 0.00680477 17.8927 0.021478 17.4964C0.0317493 17.2025 -0.0122704 16.4328 1.15132 16.4328C4.73306 16.3892 8.13529 16.3559 11.7112 16.3349C13.1721 16.3251 25.9378 16.2447 30.8627 16.2148Z" fill="#3C24B2"/>
<path d="M104.457 15.832C104.921 15.832 105.393 15.744 105.873 15.568C106.353 15.376 106.801 15.12 107.217 14.8L109.761 17.368C109.217 17.928 108.465 18.392 107.505 18.76C106.545 19.112 105.593 19.288 104.649 19.288C103.337 19.288 102.161 19.008 101.121 18.448C100.081 17.888 99.2647 17.112 98.6727 16.12C98.0807 15.128 97.7847 14.008 97.7847 12.76C97.7847 11.512 98.0727 10.4 98.6487 9.42396C99.2247 8.44796 100.017 7.68796 101.025 7.14396C102.049 6.58396 103.193 6.30396 104.457 6.30396C105.785 6.30396 106.929 6.60796 107.889 7.21596C108.865 7.80796 109.609 8.67196 110.121 9.80796C110.649 10.944 110.913 12.304 110.913 13.888H102.129C102.289 14.48 102.569 14.952 102.969 15.304C103.385 15.656 103.881 15.832 104.457 15.832ZM104.457 9.75996C103.913 9.75996 103.449 9.91196 103.065 10.216C102.681 10.52 102.393 10.936 102.201 11.464H106.473C106.329 10.936 106.081 10.52 105.729 10.216C105.377 9.91196 104.953 9.75996 104.457 9.75996Z" fill="#1A2233"/>
<path d="M77.7154 6.59204H82.1554L84.0034 12.784L85.8274 6.59204H89.6194L91.4674 12.784L93.2914 6.59204H97.7314L93.5074 19H89.4034L87.7234 12.616L86.0914 19H81.9874L77.7154 6.59204Z" fill="#1A2233"/>
<path d="M71.5549 6.59202H76.1869V19H71.5549V6.59202ZM73.8829 5.27202C73.2109 5.27202 72.6429 5.04002 72.1789 4.57602C71.7149 4.09602 71.4829 3.52802 71.4829 2.87202C71.4829 2.23202 71.7149 1.68002 72.1789 1.21602C72.6429 0.752019 73.2109 0.52002 73.8829 0.52002C74.5229 0.52002 75.0749 0.76002 75.5389 1.24002C76.0029 1.70402 76.2349 2.24802 76.2349 2.87202C76.2349 3.52802 76.0029 4.09602 75.5389 4.57602C75.0749 5.04002 74.5229 5.27202 73.8829 5.27202Z" fill="#1A2233"/>
<path d="M64.7123 19.288C63.4803 19.288 62.3283 18.992 61.2563 18.4C60.1843 17.808 59.3283 17.016 58.6883 16.024C58.0643 15.016 57.7523 13.936 57.7523 12.784C57.7523 11.632 58.0723 10.56 58.7123 9.56796C59.3523 8.57596 60.2083 7.78396 61.2803 7.19196C62.3683 6.59996 63.5363 6.30396 64.7843 6.30396C65.8563 6.30396 66.8243 6.51196 67.6883 6.92796C68.5683 7.32796 69.3203 7.88796 69.9443 8.60796L66.8963 11.104C66.6563 10.832 66.3363 10.608 65.9363 10.432C65.5363 10.24 65.1363 10.144 64.7363 10.144C64.0483 10.144 63.4483 10.408 62.9363 10.936C62.4243 11.448 62.1683 12.056 62.1683 12.76C62.1683 13.496 62.4243 14.128 62.9363 14.656C63.4483 15.184 64.0563 15.448 64.7603 15.448C65.1603 15.448 65.5603 15.36 65.9603 15.184C66.3763 14.992 66.7123 14.752 66.9683 14.464L70.0163 16.912C68.6403 18.496 66.8723 19.288 64.7123 19.288Z" fill="#1A2233"/>
<path d="M51.3518 6.59202H55.9838V19H51.3518V6.59202ZM53.6798 5.27202C53.0078 5.27202 52.4398 5.04002 51.9758 4.57602C51.5118 4.09602 51.2798 3.52802 51.2798 2.87202C51.2798 2.23202 51.5118 1.68002 51.9758 1.21602C52.4398 0.752019 53.0078 0.52002 53.6798 0.52002C54.3198 0.52002 54.8718 0.76002 55.3358 1.24002C55.7998 1.70402 56.0318 2.24802 56.0318 2.87202C56.0318 3.52802 55.7998 4.09602 55.3358 4.57602C54.8718 5.04002 54.3198 5.27202 53.6798 5.27202Z" fill="#1A2233"/>
<path d="M49.432 18.0161C49.048 18.3841 48.552 18.6881 47.944 18.9281C47.352 19.1681 46.784 19.2881 46.24 19.2881C45.424 19.2881 44.696 19.1121 44.056 18.7601C43.416 18.4081 42.92 17.9121 42.568 17.2721C42.216 16.6321 42.04 15.9041 42.04 15.0881V10.2401H40.48V6.59208H42.04V3.18408H46.456V6.59208H48.904V10.2401H46.456V14.1761C46.456 14.5441 46.552 14.8481 46.744 15.0881C46.952 15.3281 47.208 15.4481 47.512 15.4481C47.736 15.4481 47.952 15.4161 48.16 15.3521C48.368 15.2881 48.528 15.2001 48.64 15.0881L49.432 18.0161Z" fill="#1A2233"/>
</svg>
